<?xml version="1.0" encoding="UTF-8"?>
<svg width="30px" height="30px" viewBox="0 0 30 30" version="1.1" xmlns="http://www.w3.org/2000/svg" xmlns:xlink="http://www.w3.org/1999/xlink">
    <!-- Generator: Sketch 59 (86127) - https://sketch.com -->
    <title>ic-download</title>
    <desc>Created with Sketch.</desc>
    <g id="ic-download" stroke="none" stroke-width="1" fill="none" fill-rule="evenodd">
        <g id="download-icon" transform="translate(5.000000, 5.000000)" fill="#000033" fill-rule="nonzero">
            <path d="M19.9874214,14.5408805 L19.9874214,18.9622642 C19.9874214,19.0503145 19.9748428,19.1320755 19.9559748,19.2075472 L19.9559748,19.2075472 C19.9559748,19.2075472 19.9559748,19.2075472 19.9559748,19.2075472 C19.8679245,19.6415094 19.4842767,19.9685535 19.0314465,19.9685535 L0.962264151,19.9685535 C0.477987421,19.9685535 0.0754716981,19.5974843 0.0251572327,19.1257862 C0.0125786164,19.0691824 0.0125786164,19.0188679 0.0125786164,18.9559748 L0.0125786164,14.5345912 C0.0125786164,14.0125786 0.440251572,13.591195 0.955974843,13.591195 C1.21383648,13.591195 1.45283019,13.6981132 1.62264151,13.8679245 C1.79245283,14.0377358 1.89937107,14.2767296 1.89937107,14.5345912 L1.89937107,18.0754717 L18.1069182,18.0754717 L18.1069182,14.5345912 C18.1069182,14.0125786 18.5345912,13.591195 19.0503145,13.591195 C19.3081761,13.591195 19.5471698,13.6981132 19.7169811,13.8679245 C19.8805031,14.0440252 19.9874214,14.2830189 19.9874214,14.5408805 Z" id="Path"></path>
            <path d="M15.4402516,10.1132075 L10.8050314,14.7484277 C10.7987421,14.7610063 10.7861635,14.7672956 10.7798742,14.7735849 C10.6100629,14.9433962 10.3899371,15.0503145 10.1698113,15.081761 C10.1509434,15.081761 10.1320755,15.0880503 10.1132075,15.0880503 C10.0754717,15.0943396 10.0377358,15.0943396 10,15.0943396 L10,15.0943396 L9.89308176,15.0880503 C9.87421384,15.0880503 9.85534591,15.081761 9.83647799,15.081761 C9.61006289,15.0503145 9.39622642,14.9433962 9.22641509,14.7735849 C9.22012579,14.7672956 9.20754717,14.754717 9.20125786,14.7484277 L4.56603774,10.1132075 C4.35220126,9.89937107 4.24528302,9.6163522 4.24528302,9.33333333 C4.24528302,9.05031447 4.35220126,8.7672956 4.56603774,8.55345912 C4.99371069,8.12578616 5.6918239,8.12578616 6.12578616,8.55345912 L8.91194969,11.3396226 L8.91194969,1.13207547 C8.91194969,0.528301887 9.40880503,0.0314465409 10.0125786,0.0314465409 C10.3144654,0.0314465409 10.591195,0.157232704 10.7924528,0.352201258 C10.9937107,0.553459119 11.1132075,0.823899371 11.1132075,1.13207547 L11.1132075,11.3396226 L13.8993711,8.55345912 C14.327044,8.12578616 15.0251572,8.12578616 15.4591195,8.55345912 C15.8679245,8.98742138 15.8679245,9.68553459 15.4402516,10.1132075 Z" id="Path"></path>
        </g>
    </g>
</svg>